<svg xmlns="http://www.w3.org/2000/svg" viewBox="0 0 24 24" fill="none" stroke="currentColor" stroke-width="2" stroke-linecap="round" stroke-linejoin="round"><path d="M8,21 L8,18 C8,16 8.5,15 9.5,14 C10.5,13 11,12.5 11,11.5 C11,10 10.5,9 10.5,7.5 C10.5,6 11,5 11,4 L11,3.5 L11.5,2.5 L12.5,2 L13.5,2.8 L14,4 C14.5,4.5 15,5 15,5 C14.2,5.5 13.5,5.8 13.5,6.5 C13.5,7.2 14,7.5 14.5,7.5 C15,7.5 15.5,7.2 16,7 C17,7.5 18,8.5 18.5,10 C19,11.5 18.5,13 17.5,14 C16.5,15 15,15.5 14,16 C13,16.5 12,17.5 12,19 L12,21 Z" fill="currentColor" stroke="none"/><circle cx="15.5" cy="7" r="1" fill="currentColor"/><circle cx="15.5" cy="7" r="0.45" fill="white" stroke="none"/></svg>