<svg viewBox="0 0 24 24" fill="none" xmlns="http://www.w3.org/2000/svg">
  <path d="M21.5 2V8H15.5" stroke="currentColor" stroke-width="2" stroke-linecap="round" stroke-linejoin="round"/>
  <path d="M2.5 22V16H8.5" stroke="currentColor" stroke-width="2" stroke-linecap="round" stroke-linejoin="round"/>
  <path d="M19.13 8C18.54 6.34 17.38 4.93 15.86 4C14.35 3.07 12.57 2.66 10.79 2.84C9.01 3.02 7.34 3.78 6.06 5C4.77 6.22 3.95 7.85 3.72 9.61" stroke="currentColor" stroke-width="2" stroke-linecap="round"/>
  <path d="M4.87 16C5.46 17.66 6.62 19.07 8.14 20C9.65 20.93 11.43 21.34 13.21 21.16C14.99 20.98 16.66 20.22 17.94 19C19.23 17.78 20.05 16.15 20.28 14.39" stroke="currentColor" stroke-width="2" stroke-linecap="round"/>
</svg>
