<svg viewBox="0 0 32 32" fill="none" xmlns="http://www.w3.org/2000/svg">
  <circle cx="16" cy="16" r="11" fill="#2d6a4f" fill-opacity="0.15" stroke="#2d6a4f" stroke-width="1.6"/>
  <path d="M5 16H27" stroke="#2d6a4f" stroke-width="1.4" stroke-linecap="round"/>
  <path d="M16 5C18.8 8 20 12 20 16C20 20 18.8 24 16 27" stroke="#2d6a4f" stroke-width="1.4" stroke-linecap="round"/>
  <path d="M16 5C13.2 8 12 12 12 16C12 20 13.2 24 16 27" stroke="#2d6a4f" stroke-width="1.4" stroke-linecap="round"/>
  <path d="M8 10C10.5 11.5 13.2 12 16 12C18.8 12 21.5 11.5 24 10" stroke="#d4a017" stroke-width="1.5" stroke-linecap="round"/>
  <path d="M8 22C10.5 20.5 13.2 20 16 20C18.8 20 21.5 20.5 24 22" stroke="#d4a017" stroke-width="1.5" stroke-linecap="round"/>
</svg>
