<svg viewBox="0 0 24 24" fill="none" xmlns="http://www.w3.org/2000/svg">
  <path d="M8 20H16L17 22H7L8 20Z" stroke="currentColor" stroke-width="2" stroke-linejoin="round"/>
  <path d="M9 20V17C9 15 8 13 6 11C5 9.5 5 8 6 7L7 5L9 4L11 5L12 7V9L14 11C15.5 12.5 16 14 16 16V20" stroke="currentColor" stroke-width="2" stroke-linecap="round" stroke-linejoin="round"/>
  <circle cx="10" cy="7" r="1" fill="currentColor"/>
  <path d="M11 5C11.5 4.5 12 4 13 4C14 4 14.5 4.5 15 5L14 6" stroke="currentColor" stroke-width="2" stroke-linecap="round" stroke-linejoin="round"/>
</svg>
