<svg viewBox="0 0 24 24" fill="none" xmlns="http://www.w3.org/2000/svg">
  <circle cx="12" cy="12" r="3" stroke="currentColor" stroke-width="2"/>
  <path d="M12 2L13.5 6.5L18 8L13.5 9.5L12 14L10.5 9.5L6 8L10.5 6.5L12 2Z" stroke="currentColor" stroke-width="2" stroke-linejoin="round"/>
  <path d="M12 22L13.5 17.5L18 16L13.5 14.5L12 10L10.5 14.5L6 16L10.5 17.5L12 22Z" stroke="currentColor" stroke-width="2" stroke-linejoin="round"/>
  <path d="M2 12L6.5 10.5L8 6L9.5 10.5L14 12L9.5 13.5L8 18L6.5 13.5L2 12Z" stroke="currentColor" stroke-width="2" stroke-linejoin="round"/>
  <path d="M22 12L17.5 10.5L16 6L14.5 10.5L10 12L14.5 13.5L16 18L17.5 13.5L22 12Z" stroke="currentColor" stroke-width="2" stroke-linejoin="round"/>
</svg>
